PathFileType  4	(X/Y/Z) /Users/kristensteudel/Documents/NMBL_Research/BertecForceProcessing/anc_files/
DataRate	CameraRate	NumFrames	NumMarkers	Units	OrigDataRate	OrigDataStartFrame	OrigNumFrames
  200.0		  200.0		   7		     46		 mm	  200.0	      879	   1171
Frame#	Time	r_knee			r_shank_antsup			r_ankle			r_calc			r_5meta			r_toe			L_knee			L_shank_antsup			L_ankle			L_calc			L_5meta			L_toe			r_sh2			r_sh3			r_sh4			L_sh2			L_sh3			r_thigh1			r_thigh2			r_thigh3			r_thigh4			r_thigh5			L_thigh1			L_thigh2			L_thigh3			L_thigh4			r.ASIS			r.PSIS			L.ASIS			L.PSIS			C7			R_Shoulder			L_Shoulder			Sternum			R_humerus			R_elbow_med			R_elbow_lat			R_forearm			R_wrist_radius			R_wrist_ulna			L_humerus			L_elbow_med			L_elbow_lat			L_forearm			L_wrist_radius			L_wrist_ulna			
		X1	Y1	Z1	X2	Y2	Z2	X3	Y3	Z3	X4	Y4	Z4	X5	Y5	Z5	X6	Y6	Z6	X7	Y7	Z7	X8	Y8	Z8	X9	Y9	Z9	X10	Y10	Z10	X11	Y11	Z11	X12	Y12	Z12	X13	Y13	Z13	X14	Y14	Z14	X15	Y15	Z15	X16	Y16	Z16	X17	Y17	Z17	X18	Y18	Z18	X19	Y19	Z19	X20	Y20	Z20	X21	Y21	Z21	X22	Y22	Z22	X23	Y23	Z23	X24	Y24	Z24	X25	Y25	Z25	X26	Y26	Z26	X27	Y27	Z27	X28	Y28	Z28	X29	Y29	Z29	X30	Y30	Z30	X31	Y31	Z31	X32	Y32	Z32	X33	Y33	Z33	X34	Y34	Z34	X35	Y35	Z35	X36	Y36	Z36	X37	Y37	Z37	X38	Y38	Z38	X39	Y39	Z39	X40	Y40	Z40	X41	Y41	Z41	X42	Y42	Z42	X43	Y43	Z43	X44	Y44	Z44	X45	Y45	Z45	X46	Y46	Z46	

879	4.39000	616.770	543.191	-158.720	499.479	515.355	-150.927	184.282	593.348	-189.079	213.358	660.608	-257.373	38.550	557.044	-180.966	39.216	499.137	-234.186	1033.843	592.028	-479.584	1098.600	494.601	-485.285	1201.107	191.341	-431.888	1161.820	164.231	-369.422	1369.358	162.690	-451.918	1397.283	215.062	-400.847	381.965	532.521	-163.793	505.897	587.295	-133.636	397.543	613.360	-161.471	1022.299	457.408	-482.572	1068.240	355.302	-457.448	790.835	705.146	-143.744	737.269	602.899	-156.413	686.025	592.597	-139.847	689.062	747.295	-113.669	641.143	642.625	-141.650	970.911	808.549	-491.243	1038.890	688.992	-470.053	872.570	756.081	-529.212	943.286	645.552	-481.872	872.575	999.666	-187.783	662.607	1070.439	-245.659	840.577	1020.463	-445.164	649.487	1066.600	-348.971	786.002	1560.606	-298.548	903.821	1527.771	-144.463	785.803	1537.007	-488.055	916.744	1445.601	-356.561	911.534	1310.629	-43.607	787.928	1186.048	-35.347	836.951	1222.704	37.305	982.350	1218.154	-73.952	1068.687	1206.022	-150.150	1068.776	1162.549	-128.627	591.153	1406.721	-557.920	462.455	1366.774	-475.255	480.071	1407.727	-556.033	532.185	1246.199	-592.232	612.309	1147.379	-568.149	542.235	1133.451	-589.172
880	4.39500	629.766	537.479	-157.560	511.723	514.806	-151.392	202.207	611.228	-189.437	234.014	677.727	-257.413	55.557	580.443	-181.219	53.805	523.089	-235.275	1023.296	586.253	-480.040	1085.246	485.644	-485.859	1185.702	182.816	-427.570	1148.009	159.879	-363.140	1351.989	147.078	-452.878	1383.562	201.396	-405.769	395.410	538.481	-164.682	521.943	586.083	-132.754	415.338	618.330	-160.653	999.622	456.129	-480.108	1054.598	347.720	-452.228	798.652	704.338	-144.221	748.386	600.343	-155.634	697.333	588.927	-139.263	695.839	743.444	-113.639	651.150	637.145	-140.835	962.279	805.031	-494.911	1029.966	685.946	-471.910	863.101	751.826	-529.710	934.272	640.852	-481.474	872.646	1000.490	-189.075	661.371	1068.042	-244.394	838.406	1021.008	-445.459	647.398	1064.877	-346.852	788.596	1560.886	-300.303	904.816	1526.242	-144.689	788.155	1533.746	-491.073	918.050	1443.642	-356.761	904.145	1308.023	-44.035	777.041	1188.774	-36.829	826.679	1223.587	36.452	975.431	1202.823	-69.530	1062.779	1180.713	-143.090	1058.090	1137.849	-119.713	595.494	1395.621	-560.209	468.380	1352.771	-477.501	484.636	1393.671	-559.854	540.744	1232.314	-593.466	621.905	1135.098	-567.651	552.715	1119.922	-589.847
881	4.40000	643.014	532.154	-156.515	525.165	514.232	-151.741	222.585	627.421	-190.090	256.253	693.211	-257.439	74.362	602.198	-181.515	70.790	545.266	-235.312	1011.829	580.248	-479.929	1071.239	477.515	-485.532	1167.821	174.463	-424.371	1131.442	154.958	-358.458	1332.094	131.279	-453.308	1366.845	186.039	-408.583	410.302	543.456	-165.707	538.559	584.535	-132.845	433.974	622.720	-159.940	986.514	449.836	-475.265	1040.335	341.750	-448.346	806.870	703.815	-144.783	759.877	597.919	-156.163	709.198	585.141	-138.777	703.085	739.587	-113.350	661.587	631.702	-140.086	953.881	802.737	-498.357	1021.282	683.934	-473.007	854.649	748.569	-528.848	925.744	637.618	-480.605	872.779	1001.664	-189.948	661.680	1067.567	-242.170	836.008	1021.385	-446.055	644.925	1063.308	-344.785	790.845	1561.034	-303.226	905.697	1524.329	-144.621	790.604	1529.702	-493.943	919.222	1441.374	-357.052	896.176	1305.182	-44.224	766.539	1191.211	-38.504	816.449	1224.210	35.415	967.207	1187.348	-65.591	1054.723	1154.803	-135.035	1045.805	1113.434	-110.134	600.436	1383.770	-562.809	474.364	1338.677	-480.548	489.742	1379.252	-563.305	549.966	1217.865	-594.830	631.147	1122.437	-567.102	564.244	1105.398	-590.617
882	4.40500	656.948	527.236	-155.861	539.793	513.531	-152.103	243.098	641.800	-192.003	279.488	706.892	-258.031	94.813	622.275	-181.676	89.246	565.758	-235.428	999.581	573.943	-479.672	1057.906	470.253	-484.705	1148.068	165.993	-421.867	1112.073	148.396	-354.971	1310.129	116.495	-453.206	1347.713	170.081	-409.674	426.518	548.011	-166.300	556.452	583.469	-132.916	453.585	625.995	-159.423	972.851	444.834	-471.122	1025.526	337.536	-445.747	815.044	703.217	-145.165	771.922	595.862	-159.159	722.352	581.499	-138.258	710.410	735.210	-113.070	672.736	626.085	-139.171	946.452	801.022	-501.497	1013.243	681.890	-473.834	846.711	745.750	-526.812	917.293	634.626	-479.750	872.737	1002.020	-190.365	660.760	1065.033	-240.196	833.867	1021.340	-446.520	642.765	1060.697	-342.904	792.311	1560.106	-305.141	906.060	1522.052	-144.431	793.449	1524.215	-496.005	920.487	1438.892	-357.070	888.100	1302.383	-44.377	760.073	1193.459	-40.273	806.540	1224.527	34.171	957.302	1171.143	-61.179	1044.033	1128.157	-124.978	1031.090	1089.106	-99.820	605.708	1371.186	-565.777	480.742	1323.886	-484.053	495.560	1363.848	-567.463	559.939	1202.656	-596.522	644.505	1109.421	-566.666	575.788	1090.956	-590.788
883	4.41000	671.597	522.893	-155.761	555.547	512.871	-152.909	265.330	655.037	-192.219	303.855	718.608	-258.490	116.547	640.510	-181.707	109.118	584.131	-235.337	987.356	568.283	-479.309	1044.210	463.358	-484.213	1126.600	157.028	-420.178	1090.223	140.578	-353.091	1286.521	101.829	-452.235	1326.376	153.709	-408.358	443.878	552.124	-166.714	575.307	582.233	-133.003	473.680	628.700	-158.847	958.731	440.412	-468.594	1009.901	333.909	-444.061	823.709	702.954	-145.316	784.610	594.040	-159.544	735.771	577.441	-137.801	718.169	730.796	-112.513	684.444	620.474	-138.559	939.651	799.066	-504.626	1005.991	679.826	-474.448	838.695	743.661	-524.212	909.306	631.680	-478.899	872.589	1002.841	-191.457	659.978	1062.513	-238.084	831.496	1020.940	-447.230	640.800	1058.430	-341.053	793.506	1558.308	-306.970	906.166	1519.534	-144.010	795.966	1518.192	-498.888	921.709	1436.282	-357.090	880.155	1299.848	-44.596	751.196	1194.878	-42.041	796.773	1224.496	32.732	946.894	1155.440	-55.499	1031.291	1102.439	-115.872	1014.403	1064.979	-87.933	611.582	1357.901	-569.033	487.273	1308.683	-488.158	502.382	1347.261	-571.919	570.498	1187.062	-598.242	656.861	1096.449	-565.996	588.826	1076.048	-590.999
884	4.41500	687.184	519.110	-156.289	572.601	512.333	-152.932	288.411	666.491	-192.736	328.893	728.555	-259.058	139.532	656.621	-181.479	130.267	600.483	-235.082	974.713	563.081	-479.496	1030.649	456.247	-483.800	1103.566	147.669	-419.112	1065.927	132.407	-352.906	1261.566	86.809	-450.486	1302.664	136.670	-406.744	462.318	555.650	-167.090	594.525	580.779	-132.570	494.473	630.668	-159.189	943.851	436.481	-466.995	993.098	329.377	-442.844	832.877	702.539	-145.505	797.524	592.514	-160.095	749.888	573.725	-137.559	726.500	726.428	-111.973	696.926	615.078	-137.804	933.446	796.420	-507.847	1000.281	677.509	-475.757	830.991	740.967	-520.518	901.055	627.834	-478.437	872.326	1003.021	-191.974	659.063	1059.331	-236.334	829.129	1020.265	-447.867	639.092	1056.237	-339.132	795.618	1555.763	-311.497	906.085	1516.768	-143.443	798.274	1513.191	-503.115	923.218	1433.614	-357.046	872.535	1297.426	-44.741	742.520	1195.652	-44.150	787.299	1224.194	31.142	934.818	1139.640	-49.636	1016.410	1077.067	-104.894	995.579	1042.481	-76.910	618.211	1344.334	-572.697	494.378	1293.062	-492.604	510.502	1327.954	-577.351	581.931	1171.040	-599.958	670.927	1083.702	-565.277	602.935	1060.788	-590.948
885	4.42000	703.950	515.442	-155.838	590.309	511.590	-153.000	312.390	676.444	-192.866	354.250	736.892	-259.578	160.344	670.982	-180.449	147.108	612.998	-236.723	962.941	558.238	-479.454	1016.951	448.561	-484.621	1079.026	138.038	-418.614	1040.325	124.587	-351.905	1234.746	70.382	-448.005	1277.338	118.911	-403.896	481.699	558.935	-167.342	614.513	579.320	-132.160	516.396	632.690	-158.908	930.616	432.180	-466.338	974.757	322.444	-441.649	842.388	702.745	-145.566	811.689	591.177	-159.778	764.638	570.300	-137.460	735.487	722.313	-111.332	710.045	609.782	-137.309	928.254	793.736	-510.799	994.524	674.006	-477.618	823.896	738.869	-516.734	893.041	624.253	-478.269	872.021	1002.693	-192.091	657.852	1056.402	-234.192	826.597	1019.412	-448.680	637.530	1053.998	-337.342	796.064	1552.770	-313.485	905.803	1513.795	-142.943	800.461	1507.248	-507.173	924.289	1430.730	-356.918	865.080	1295.170	-44.938	734.015	1196.175	-46.369	778.190	1223.647	29.279	921.734	1124.204	-43.359	999.140	1052.617	-93.204	974.736	1020.892	-64.899	625.635	1330.246	-576.629	501.822	1276.823	-497.521	518.490	1309.940	-582.887	594.237	1154.706	-601.648	685.358	1071.151	-564.485	618.204	1045.424	-590.787
